<svg xmlns="http://www.w3.org/2000/svg" viewBox="0 0 24 24" fill="#4CAF50">
  <path d="M12,2c-0.4,0-0.7,0.2-0.9,0.5L6.6,10H3c-0.6,0-1,0.4-1,1c0,0.2,0.1,0.3,0.1,0.5l3.5,6c0.3,0.5,0.9,0.6,1.4,0.4
    c0.5-0.3,0.6-0.9,0.4-1.4L4.4,12H6c0.4,0,0.7-0.2,0.9-0.5l3.6-6.2V20c0,0.6,0.4,1,1,1s1-0.4,1-1v-8h1v8c0,0.6,0.4,1,1,1s1-0.4,1-1
    V5.3l3.5,6.2c0.2,0.3,0.5,0.5,0.9,0.5h1.6l-3,5.2c-0.3,0.5-0.1,1.1,0.4,1.4c0.5,0.3,1.1,0.1,1.4-0.4l3.5-6.1c0.1-0.1,0.1-0.3,0.1-0.5
    c0-0.6-0.4-1-1-1h-3.6l-4.5-7.5C12.8,2.2,12.4,2,12,2z"/>
</svg>
